<svg xmlns="http://www.w3.org/2000/svg" xmlns:xlink="http://www.w3.org/1999/xlink" version="1.1" x="0px" y="0px" viewBox="0 0 24 30" enable-background="new 0 0 24 24" xml:space="preserve"><g><path fill="#000000" d="M18.8,13.7c-0.2,0-0.4,0.2-0.4,0.4v6.2H3.6V5.8h6.3c0.2,0,0.4-0.2,0.4-0.4S10.1,5,9.9,5H3.2   C3,5,2.8,5.2,2.8,5.4v15.3c0,0.2,0.2,0.4,0.4,0.4h15.6c0.2,0,0.4-0.2,0.4-0.4v-6.6C19.2,13.9,19.1,13.7,18.8,13.7z"/><path fill="#000000" d="M20.8,2.8h-6.7c-0.2,0-0.4,0.2-0.4,0.4s0.2,0.4,0.4,0.4h5.7L8.3,15.1c-0.2,0.2-0.2,0.4,0,0.6   c0.1,0.1,0.2,0.1,0.3,0.1s0.2,0,0.3-0.1L20.4,4.3V10c0,0.2,0.2,0.4,0.4,0.4s0.4-0.2,0.4-0.4V3.3C21.2,3,21,2.8,20.8,2.8z"/></g><text x="0" y="39" fill="#000000" font-size="5px" font-weight="bold" font-family="'Helvetica Neue', Helvetica, Arial-Unicode, Arial, Sans-serif">Created by Iconographer</text><text x="0" y="44" fill="#000000" font-size="5px" font-weight="bold" font-family="'Helvetica Neue', Helvetica, Arial-Unicode, Arial, Sans-serif">from the Noun Project</text></svg>