<?xml version="1.0" encoding="UTF-8"?>
<svg height="299" version="1.1" width="299" xmlns="http://www.w3.org/2000/svg" xmlns:xlink="http://www.w3.org/1999/xlink" style="overflow: hidden; position: relative; left: -0.625px;"><desc style="-webkit-tap-highlight-color: rgba(0, 0, 0, 0);">Created with Raphaël 2.2.0</desc><defs style="-webkit-tap-highlight-color: rgba(0, 0, 0, 0);"></defs><circle cx="149.5" cy="149.5" r="65.025" fill="none" stroke="#000" style="-webkit-tap-highlight-color: rgba(0, 0, 0, 0);"></circle><circle cx="149.5" cy="149.5" r="72.25" fill="none" stroke="#000" style="-webkit-tap-highlight-color: rgba(0, 0, 0, 0);"></circle><circle cx="149.5" cy="149.5" r="115.60000000000001" fill="none" stroke="#000" style="-webkit-tap-highlight-color: rgba(0, 0, 0, 0);"></circle><circle cx="149.5" cy="149.5" r="122.825" fill="none" stroke="#000" style="-webkit-tap-highlight-color: rgba(0, 0, 0, 0);"></circle><path fill="#ffffff" stroke="#000000" d="M149.5,161.54166666666666C150.90111153840655,161.7622555313414,157.90666923043935,160.85825541027063,157.90666923043935,162.86519985471503C157.90666923043935,164.8721442991595,150.90111153840655,171.79697775356362,149.5,173.58333333333331M149.5,161.54166666666666C148.09888846159345,162.2370467668227,141.09333076956065,163.70700282315826,141.09333076956065,165.7139472676027C141.09333076956065,167.72089171204712,148.09888846159345,172.2717689890449,149.5,173.58333333333331" style="-webkit-tap-highlight-color: rgba(0, 0, 0, 0); cursor: pointer;"></path><path fill="#ffffff" stroke="#000000" d="M149.5,161.54166666666666C150.90111153840655,161.7622555313414,157.90666923043935,160.85825541027063,157.90666923043935,162.86519985471503C157.90666923043935,164.8721442991595,150.90111153840655,171.79697775356362,149.5,173.58333333333331M149.5,161.54166666666666C148.09888846159345,162.2370467668227,141.09333076956065,163.70700282315826,141.09333076956065,165.7139472676027C141.09333076956065,167.72089171204712,148.09888846159345,172.2717689890449,149.5,173.58333333333331" transform="matrix(2,0,0,2,-149.5,-101.3333)" stroke-width="0.5" style="-webkit-tap-highlight-color: rgba(0, 0, 0, 0); cursor: pointer;"></path><path fill="none" stroke="#000000" d="M149.5,161.54166666666666C150.90111153840655,161.7622555313414,157.90666923043935,160.85825541027063,157.90666923043935,162.86519985471503C157.90666923043935,164.8721442991595,150.90111153840655,171.79697775356362,149.5,173.58333333333331M149.5,161.54166666666666C148.09888846159345,162.2370467668227,141.09333076956065,163.70700282315826,141.09333076956065,165.7139472676027C141.09333076956065,167.72089171204712,148.09888846159345,172.2717689890449,149.5,173.58333333333331" transform="matrix(0.766,0.6428,-0.6428,0.766,131.0731,-61.1204)" style="-webkit-tap-highlight-color: rgba(0, 0, 0, 0);"></path><path fill="none" stroke="#000000" d="M149.5,161.54166666666666C150.90111153840655,161.7622555313414,157.90666923043935,160.85825541027063,157.90666923043935,162.86519985471503C157.90666923043935,164.8721442991595,150.90111153840655,171.79697775356362,149.5,173.58333333333331M149.5,161.54166666666666C148.09888846159345,162.2370467668227,141.09333076956065,163.70700282315826,141.09333076956065,165.7139472676027C141.09333076956065,167.72089171204712,148.09888846159345,172.2717689890449,149.5,173.58333333333331" transform="matrix(1.5321,1.2856,-1.2856,1.5321,81.6853,-234.843)" stroke-width="0.5" style="-webkit-tap-highlight-color: rgba(0, 0, 0, 0);"></path><path fill="none" stroke="#000000" d="M149.5,149.5L149.5,299M149.5,149.5L200.63201142718748,289.9840468074933M149.5,149.5L245.59674764813764,264.02364424628723M149.5,149.5L278.97079786577353,224.25M149.5,149.5L296.7287590753251,175.4604025612061M149.5,149.5L296.7287590753251,123.53959743879392M149.5,149.5L278.9707978657736,74.75000000000003M149.5,149.5L245.59674764813764,34.97635575371281M149.5,149.5L200.6320114271875,9.015953192506714M149.5,149.5L149.50000000000003,0M149.5,149.5L98.36798857281254,9.015953192506686M149.5,149.5L53.40325235186238,34.97635575371277M149.5,149.5L20.029202134226438,74.74999999999993M149.5,149.5L2.2712409246749132,123.53959743879392M149.5,149.5L2.271240924674885,175.46040256120602M149.5,149.5L20.029202134226438,224.25M149.5,149.5L53.403252351862335,264.0236442462872M149.5,149.5L98.36798857281242,289.98404680749326" stroke-width="1" class="mirror-line" style="-webkit-tap-highlight-color: rgba(0, 0, 0, 0);"></path><path fill="none" stroke="#000000" d="M149.5,161.54166666666666C150.90111153840655,161.7622555313414,157.90666923043935,160.85825541027063,157.90666923043935,162.86519985471503C157.90666923043935,164.8721442991595,150.90111153840655,171.79697775356362,149.5,173.58333333333331M149.5,161.54166666666666C148.09888846159345,162.2370467668227,141.09333076956065,163.70700282315826,141.09333076956065,165.7139472676027C141.09333076956065,167.72089171204712,148.09888846159345,172.2717689890449,149.5,173.58333333333331" transform="matrix(0.1736,0.9848,-0.9848,0.1736,270.7684,-23.6892)" style="-webkit-tap-highlight-color: rgba(0, 0, 0, 0);"></path><path fill="none" stroke="#000000" d="M149.5,161.54166666666666C150.90111153840655,161.7622555313414,157.90666923043935,160.85825541027063,157.90666923043935,162.86519985471503C157.90666923043935,164.8721442991595,150.90111153840655,171.79697775356362,149.5,173.58333333333331M149.5,161.54166666666666C148.09888846159345,162.2370467668227,141.09333076956065,163.70700282315826,141.09333076956065,165.7139472676027C141.09333076956065,167.72089171204712,148.09888846159345,172.2717689890449,149.5,173.58333333333331" transform="matrix(0.3473,1.9696,-1.9696,0.3473,344.6018,-188.5143)" stroke-width="0.5" style="-webkit-tap-highlight-color: rgba(0, 0, 0, 0);"></path><path fill="none" stroke="#000000" d="M149.5,161.54166666666666C150.90111153840655,161.7622555313414,157.90666923043935,160.85825541027063,157.90666923043935,162.86519985471503C157.90666923043935,164.8721442991595,150.90111153840655,171.79697775356362,149.5,173.58333333333331M149.5,161.54166666666666C148.09888846159345,162.2370467668227,141.09333076956065,163.70700282315826,141.09333076956065,165.7139472676027C141.09333076956065,167.72089171204712,148.09888846159345,172.2717689890449,149.5,173.58333333333331" transform="matrix(-0.5,0.866,-0.866,-0.5,353.7208,94.7792)" style="-webkit-tap-highlight-color: rgba(0, 0, 0, 0);"></path><path fill="none" stroke="#000000" d="M149.5,161.54166666666666C150.90111153840655,161.7622555313414,157.90666923043935,160.85825541027063,157.90666923043935,162.86519985471503C157.90666923043935,164.8721442991595,150.90111153840655,171.79697775356362,149.5,173.58333333333331M149.5,161.54166666666666C148.09888846159345,162.2370467668227,141.09333076956065,163.70700282315826,141.09333076956065,165.7139472676027C141.09333076956065,167.72089171204712,148.09888846159345,172.2717689890449,149.5,173.58333333333331" transform="matrix(-1,1.7321,-1.7321,-1,516.228,15.9751)" stroke-width="0.5" style="-webkit-tap-highlight-color: rgba(0, 0, 0, 0);"></path><path fill="none" stroke="#000000" d="M149.5,161.54166666666666C150.90111153840655,161.7622555313414,157.90666923043935,160.85825541027063,157.90666923043935,162.86519985471503C157.90666923043935,164.8721442991595,150.90111153840655,171.79697775356362,149.5,173.58333333333331M149.5,161.54166666666666C148.09888846159345,162.2370467668227,141.09333076956065,163.70700282315826,141.09333076956065,165.7139472676027C141.09333076956065,167.72089171204712,148.09888846159345,172.2717689890449,149.5,173.58333333333331" transform="matrix(-0.9397,0.342,-0.342,-0.9397,341.1161,238.852)" style="-webkit-tap-highlight-color: rgba(0, 0, 0, 0);"></path><path fill="none" stroke="#000000" d="M149.5,161.54166666666666C150.90111153840655,161.7622555313414,157.90666923043935,160.85825541027063,157.90666923043935,162.86519985471503C157.90666923043935,164.8721442991595,150.90111153840655,171.79697775356362,149.5,173.58333333333331M149.5,161.54166666666666C148.09888846159345,162.2370467668227,141.09333076956065,163.70700282315826,141.09333076956065,165.7139472676027C141.09333076956065,167.72089171204712,148.09888846159345,172.2717689890449,149.5,173.58333333333331" transform="matrix(-1.8794,0.684,-0.684,-1.8794,516.2581,282.9422)" stroke-width="0.5" style="-webkit-tap-highlight-color: rgba(0, 0, 0, 0);"></path><path fill="none" stroke="#000000" d="M149.5,161.54166666666666C150.90111153840655,161.7622555313414,157.90666923043935,160.85825541027063,157.90666923043935,162.86519985471503C157.90666923043935,164.8721442991595,150.90111153840655,171.79697775356362,149.5,173.58333333333331M149.5,161.54166666666666C148.09888846159345,162.2370467668227,141.09333076956065,163.70700282315826,141.09333076956065,165.7139472676027C141.09333076956065,167.72089171204712,148.09888846159345,172.2717689890449,149.5,173.58333333333331" transform="matrix(-0.9397,-0.342,0.342,-0.9397,238.852,341.1161)" style="-webkit-tap-highlight-color: rgba(0, 0, 0, 0);"></path><path fill="none" stroke="#000000" d="M149.5,161.54166666666666C150.90111153840655,161.7622555313414,157.90666923043935,160.85825541027063,157.90666923043935,162.86519985471503C157.90666923043935,164.8721442991595,150.90111153840655,171.79697775356362,149.5,173.58333333333331M149.5,161.54166666666666C148.09888846159345,162.2370467668227,141.09333076956065,163.70700282315826,141.09333076956065,165.7139472676027C141.09333076956065,167.72089171204712,148.09888846159345,172.2717689890449,149.5,173.58333333333331" transform="matrix(-1.8794,-0.684,0.684,-1.8794,344.678,487.4703)" stroke-width="0.5" style="-webkit-tap-highlight-color: rgba(0, 0, 0, 0);"></path><path fill="none" stroke="#000000" d="M149.5,161.54166666666666C150.90111153840655,161.7622555313414,157.90666923043935,160.85825541027063,157.90666923043935,162.86519985471503C157.90666923043935,164.8721442991595,150.90111153840655,171.79697775356362,149.5,173.58333333333331M149.5,161.54166666666666C148.09888846159345,162.2370467668227,141.09333076956065,163.70700282315826,141.09333076956065,165.7139472676027C141.09333076956065,167.72089171204712,148.09888846159345,172.2717689890449,149.5,173.58333333333331" transform="matrix(-0.5,-0.866,0.866,-0.5,94.7792,353.7208)" style="-webkit-tap-highlight-color: rgba(0, 0, 0, 0);"></path><path fill="none" stroke="#000000" d="M149.5,161.54166666666666C150.90111153840655,161.7622555313414,157.90666923043935,160.85825541027063,157.90666923043935,162.86519985471503C157.90666923043935,164.8721442991595,150.90111153840655,171.79697775356362,149.5,173.58333333333331M149.5,161.54166666666666C148.09888846159345,162.2370467668227,141.09333076956065,163.70700282315826,141.09333076956065,165.7139472676027C141.09333076956065,167.72089171204712,148.09888846159345,172.2717689890449,149.5,173.58333333333331" transform="matrix(-1,-1.7321,1.7321,-1,81.772,533.8583)" stroke-width="0.5" style="-webkit-tap-highlight-color: rgba(0, 0, 0, 0);"></path><path fill="none" stroke="#000000" d="M149.5,161.54166666666666C150.90111153840655,161.7622555313414,157.90666923043935,160.85825541027063,157.90666923043935,162.86519985471503C157.90666923043935,164.8721442991595,150.90111153840655,171.79697775356362,149.5,173.58333333333331M149.5,161.54166666666666C148.09888846159345,162.2370467668227,141.09333076956065,163.70700282315826,141.09333076956065,165.7139472676027C141.09333076956065,167.72089171204712,148.09888846159345,172.2717689890449,149.5,173.58333333333331" transform="matrix(0.1736,-0.9848,0.9848,0.1736,-23.6892,270.7684)" style="-webkit-tap-highlight-color: rgba(0, 0, 0, 0);"></path><path fill="none" stroke="#000000" d="M149.5,161.54166666666666C150.90111153840655,161.7622555313414,157.90666923043935,160.85825541027063,157.90666923043935,162.86519985471503C157.90666923043935,164.8721442991595,150.90111153840655,171.79697775356362,149.5,173.58333333333331M149.5,161.54166666666666C148.09888846159345,162.2370467668227,141.09333076956065,163.70700282315826,141.09333076956065,165.7139472676027C141.09333076956065,167.72089171204712,148.09888846159345,172.2717689890449,149.5,173.58333333333331" transform="matrix(0.3473,-1.9696,1.9696,0.3473,-149.4434,400.4008)" stroke-width="0.5" style="-webkit-tap-highlight-color: rgba(0, 0, 0, 0);"></path><path fill="none" stroke="#000000" d="M149.5,161.54166666666666C150.90111153840655,161.7622555313414,157.90666923043935,160.85825541027063,157.90666923043935,162.86519985471503C157.90666923043935,164.8721442991595,150.90111153840655,171.79697775356362,149.5,173.58333333333331M149.5,161.54166666666666C148.09888846159345,162.2370467668227,141.09333076956065,163.70700282315826,141.09333076956065,165.7139472676027C141.09333076956065,167.72089171204712,148.09888846159345,172.2717689890449,149.5,173.58333333333331" transform="matrix(0.766,-0.6428,0.6428,0.766,-61.1204,131.0731)" style="-webkit-tap-highlight-color: rgba(0, 0, 0, 0);"></path><path fill="none" stroke="#000000" d="M149.5,161.54166666666666C150.90111153840655,161.7622555313414,157.90666923043935,160.85825541027063,157.90666923043935,162.86519985471503C157.90666923043935,164.8721442991595,150.90111153840655,171.79697775356362,149.5,173.58333333333331M149.5,161.54166666666666C148.09888846159345,162.2370467668227,141.09333076956065,163.70700282315826,141.09333076956065,165.7139472676027C141.09333076956065,167.72089171204712,148.09888846159345,172.2717689890449,149.5,173.58333333333331" transform="matrix(1.5321,-1.2856,1.2856,1.5321,-240.7798,149.544)" stroke-width="0.5" style="-webkit-tap-highlight-color: rgba(0, 0, 0, 0);"></path>
</svg>
